<?xml version="1.0" encoding="UTF-8"?>
<svg enable-background="new 0 0 455.148 454.788" viewBox="0 0 455.148 454.788" xmlns="http://www.w3.org/2000/svg">
 <defs>
  <linearGradient id="d" x1="424.37" x2="455.15" gradientUnits="userSpaceOnUse">
   <stop stop-color="#e5e5e5" offset="0"/>
   <stop stop-color="#e2e2e2" offset=".1696"/>
   <stop stop-color="#d8d8d8" offset=".3059"/>
   <stop stop-color="#c7c7c7" offset=".4306"/>
   <stop stop-color="#b0b0b0" offset=".5484"/>
   <stop stop-color="#919191" offset=".6614"/>
   <stop stop-color="#6b6b6b" offset=".7707"/>
   <stop stop-color="#3e3e3e" offset=".8772"/>
   <stop stop-color="#0c0c0c" offset=".9788"/>
   <stop offset="1"/>
  </linearGradient>
  <linearGradient id="c" x1="30.852" x2=".0713" gradientUnits="userSpaceOnUse">
   <stop stop-color="#e5e5e5" offset="0"/>
   <stop stop-color="#e2e2e2" offset=".2675"/>
   <stop stop-color="#d8d8d8" offset=".4824"/>
   <stop stop-color="#c7c7c7" offset=".679"/>
   <stop stop-color="#b0b0b0" offset=".8635"/>
   <stop stop-color="#999" offset="1"/>
  </linearGradient>
  <linearGradient id="b" x2="0" y1="30.852" y2=".0718" gradientUnits="userSpaceOnUse">
   <stop stop-color="#e5e5e5" offset="0"/>
   <stop stop-color="#e2e2e2" offset=".2675"/>
   <stop stop-color="#d8d8d8" offset=".4824"/>
   <stop stop-color="#c7c7c7" offset=".679"/>
   <stop stop-color="#b0b0b0" offset=".8635"/>
   <stop stop-color="#999" offset="1"/>
  </linearGradient>
  <linearGradient id="a" x2="0" y1="423.9" y2="454.68" gradientUnits="userSpaceOnUse">
   <stop stop-color="#e5e5e5" offset="0"/>
   <stop stop-color="#e2e2e2" offset=".1696"/>
   <stop stop-color="#d8d8d8" offset=".3059"/>
   <stop stop-color="#c7c7c7" offset=".4306"/>
   <stop stop-color="#b0b0b0" offset=".5484"/>
   <stop stop-color="#919191" offset=".6614"/>
   <stop stop-color="#6b6b6b" offset=".7707"/>
   <stop stop-color="#3e3e3e" offset=".8772"/>
   <stop stop-color="#0c0c0c" offset=".9788"/>
   <stop offset="1"/>
  </linearGradient>
 </defs>
 <path d="m227.39 0h-209.39c-9.941 0-18 8.059-18 18v418.79c0 9.94 8.059 18 18 18h418.79c9.941 0 18-8.06 18-18v-418.79c0-9.941-8.059-18-18-18h-209.39z" fill="#e5e5e5" fill-rule="evenodd"/>
 <path d="m449.748,449.964-25.381-25.344c.865-.828 1.584-1.8 2.305-2.772 .576-1.08 1.367-2.088 1.836-3.168 .469-1.188.648-2.16.936-3.348 .18-1.188.289-2.521.324-3.853l-.145-369.396 .145,1.908c-.035-1.368-.145-2.7-.324-3.852-.287-1.296-.467-2.268-.936-3.348-.469-1.188-1.26-2.196-1.836-3.168-.721-1.044-1.439-1.908-2.305-2.736l25.381-25.38c.684.576 1.295,1.332 1.98,2.268 .611.792 1.295,2.016 1.908,3.276 .432,1.296 1.115,2.916 1.367,4.572 .145,1.44.145,2.952.145,4.68-.037,1.692-.037,3.816 0,5.976v402.912c.035,2.124.035,4.248 0,5.977 .035,1.656-.072,3.168-.18,4.68-.289,1.584-.865,3.168-1.332,4.608-.613,1.224-1.297,2.304-1.908,3.24-.685.9-1.296,1.656-1.98,2.268z" fill="url(#d)" fill-rule="evenodd"/>
 <path d="m5.472,449.604 25.38-25.344c-.9-.828-1.62-1.8-2.304-2.771-.684-1.08-1.476-2.089-1.836-3.168-.432-1.188-.792-2.16-.936-3.349-.252-1.188-.36-2.52-.324-3.852l.144-369.396-.144,1.908c-.036-1.368.072-2.7.324-3.852 .144-1.296.504-2.268.936-3.348 .36-1.188 1.152-2.196 1.836-3.168 .684-1.044 1.404-1.908 2.304-2.736l-25.38-25.38c-.72.576-1.332,1.332-1.98,2.268-.72.828-1.404,1.908-1.908,3.24-.54,1.368-1.188,2.952-1.368,4.608-.216,1.44-.216,2.952-.144,4.68-.036,1.692-.036,3.816 0,5.976v402.912c-.036,2.124-.036,4.248 0,5.976-.072,1.656-.072,3.168.144,4.68 .18,1.584.828,3.168 1.368,4.607 .504,1.225 1.188,2.304 1.908,3.24 .648.9 1.26,1.657 1.98,2.269z" fill="url(#c)" fill-rule="evenodd"/>
 <path d="m449.963,5.472-25.344,25.38c-.828-.9-1.799-1.62-2.771-2.304-1.08-.684-2.088-1.476-3.168-1.836-1.115-.432-2.123-.792-3.313-.936-1.223-.252-2.52-.36-3.887-.324l-369.396.144 1.908-.144c-1.368.036-2.7,0-3.852.288-1.296.144-2.268.468-3.348.972-1.188.36-2.196,1.152-3.168,1.836-1.044.684-1.908,1.404-2.736,2.304l-25.38-25.38c.576-.684 1.332-1.404 2.268-2.016 .792-.756 2.016-1.332 3.276-1.872 1.296-.54 2.916-1.188 4.572-1.368 1.44-.216 2.952-.216 4.68-.144 1.692-.036 3.816-.036 5.976,0h402.912c2.125-.036 4.248-.036 5.977,0 1.655-.072 3.167-.072 4.679.144 1.584.18 3.168.828 4.607,1.368 1.225.504 2.305,1.188 3.24,1.908 .901.648 1.657,1.26 2.268,1.98z" fill="url(#b)" fill-rule="evenodd"/>
 <path d="m449.604,449.28-25.344-25.381c-.828.828-1.801,1.656-2.771,2.341-1.08.647-2.088,1.296-3.168,1.8-1.117.396-2.125.72-3.313.972-1.225.18-2.52.288-3.889.324l-369.396-.18 1.908.18c-1.368-.036-2.7-.145-3.852-.324-1.296-.252-2.268-.576-3.348-.972-1.188-.504-2.196-1.152-3.168-1.8-1.044-.721-1.908-1.44-2.736-2.305l-25.379,25.345c.576.647 1.332,1.367 2.268,2.016 .792.612 2.016,1.296 3.276,1.908 1.296.468 2.916,1.044 4.572,1.332 1.44.144 2.952.144 4.68.144 1.692-.036 3.816-.036 5.976,0h402.912c2.123-.036 4.248-.036 5.977,0 1.654,0 3.168,0 4.68-.144 1.584-.252 3.168-.937 4.607-1.368 1.225-.648 2.305-1.224 3.24-1.872 .9-.649 1.656-1.368 2.268-2.016z" fill="url(#a)" fill-rule="evenodd"/>
 <path d="m284.942,245.294c-8.783,13.752-22.211,15.156-21.887,0 .324-15.12 23.184-60.516 23.184-60.516 5.725-16.272 13.896-27.36 24.912-33.912 11.051-6.444 27.971,2.664 40.607,2.52s25.451-8.316 34.488-3.384c9,5.004 14.977,12.384 19.332,25.776 4.283,13.464 5.76,39.6 6.443,54.071 .613,14.4.072,25.236-2.592,31.752-2.699,6.48-9.18,7.452-13.32,6.877-4.104-.576-7.74-3.961-11.16-10.297 .648,43.164.648,76.32 0,101.305-.611,24.804.396,38.88-3.852,46.8-4.283,7.812-17.244,10.44-21.455,0-4.141-10.656-2.916-41.292-3.42-62.676s-.396-42.444.395-64.404h-9c.217,39.204.072,68.868-.432,90.576-.504,21.563 1.584,31.752-2.555,38.196-4.248,6.407-17.82,9.936-22.32,0-4.465-10.08-3.637-29.305-5.941-62.316-2.303-33.229-3.779-75.564-7.811-134.676l-11.953,17.388c.001,0-2.805,3.204-11.663,16.92z" fill="#7f7f7f" fill-rule="evenodd"/>
 <path d="m349.6 96.218c14.09 0 25.523 11.435 25.523 25.524s-11.434 25.524-25.523 25.524-25.523-11.435-25.523-25.524 11.433-25.524 25.523-25.524" fill="#7f7f7f" fill-rule="evenodd"/>
 <path d="m332.716,93.878c-.938-1.548-1.656-3.204-2.449-5.4-.9-2.304-2.771-6.192-2.123-7.488 .646-1.368 1.043-1.368 6.191,0 5.111,1.404 18.035,5.796 24.588,8.316 6.48,2.376 11.305,4.716 14.328,6.192 2.881,1.368 2.988,1.26 3.24,2.592 0,1.188-.936,3.348-2.412,5.076s-3.492,3.276-6.191,5.04c-5.832-1.224-12.061-2.16-19.369-2.952-7.416-.828-19.008-1.332-23.939-1.944-4.932-.684-6.516-.72-5.148-2.196 1.331-1.692 5.758-3.924 13.284-7.236z" fill="#7f7f7f" fill-rule="evenodd"/>
 <path d="m130.144,224.738c-5.509-.288-10.584-.288-15.373,0-4.968.252-9.611-.036-13.355,1.62-3.672,1.404-4.752,2.16-8.496,7.668-3.996,5.615-9.18,14.76-14.148,25.487-5.004,10.62-11.699,28.477-14.939,37.62-3.204,9-3.313,7.776-4.068,16.164-.828,8.244-2.34,24.444-.791,33.192 1.475,8.676 5.075,14.328 9.684,18.611 4.572,4.141 10.224,6.337 17.388,6.444-.36,8.893-.36,15.624 0,20.628 .323,4.86-.288,7.057 2.052,8.928 2.232,1.801 7.848,1.872 11.305,2.017 3.42.18 6.983.144 8.892-1.224 1.584-1.513 1.332-2.593 1.62-7.668 .324-5.185.468-12.744.432-23.076h99.072c.145,10.332.611,17.892 1.008,23.076 .396,5.075-.18,6.155 1.62,7.668 1.8,1.367 5.364,1.403 8.892,1.224 3.42-.145 9-.216 11.34-2.017 2.232-1.871 1.656-4.067 2.016-8.928 .289-5.004.289-11.735 0-20.628 7.129-.107 12.744-2.304 17.389-6.444 4.572-4.283 8.137-9.936 9.721-18.611 1.439-8.748-.072-24.948-.793-33.192-.828-8.388-.936-7.164-4.068-16.164-3.311-9.144-10.043-27-14.939-37.62-5.004-10.728-10.332-19.872-14.184-25.487-3.816-5.509-4.932-6.264-8.496-7.668-3.816-1.656-8.496-1.368-13.355-1.62-4.824-.288-9.937-.288-15.336,0h-60.09z" fill="#7f7f7f" fill-rule="evenodd"/>
 <path d="m117.04 44.81c35.114 0 63.612 28.498 63.612 63.612s-28.498 63.612-63.612 63.612-63.612-28.498-63.612-63.612 28.498-63.612 63.612-63.612" fill="#7f7f7f" fill-rule="evenodd"/>
 <path d="m282.315,240.866c-8.82,13.752-22.248,15.156-21.924,0 .324-15.12 23.184-60.516 23.184-60.516 5.725-16.272 13.896-27.36 24.912-33.912 11.051-6.444 27.971,2.664 40.607,2.52 12.637-.18 25.453-8.316 34.488-3.384 9,5.004 14.977,12.384 19.332,25.776 4.283,13.464 5.76,39.6 6.443,54.072 .613,14.4.072,25.236-2.592,31.752-2.664,6.48-9.18,7.416-13.32,6.876-4.104-.611-7.74-3.96-11.123-10.296 .648,43.164.648,76.32 0,101.304-.648,24.805.359,38.845-3.889,46.765-4.283,7.812-17.244,10.476-21.455,0-4.141-10.62-2.916-41.292-3.42-62.641-.504-21.384-.361-42.443.395-64.403h-9c.217,39.204.072,68.868-.432,90.576-.467,21.563 1.584,31.716-2.555,38.195-4.248,6.372-17.82,9.937-22.32,0-4.465-10.08-3.637-29.304-5.941-62.315-2.303-33.229-3.779-75.564-7.811-134.712l-11.953,17.424c.001-.001-2.805,3.203-11.626,16.919z" fill="#17057a" fill-rule="evenodd"/>
 <path d="m346.84 91.778c14.09 0 25.523 11.435 25.523 25.524s-11.434 25.524-25.523 25.524-25.523-11.435-25.523-25.524 11.433-25.524 25.523-25.524" fill="#17057a" fill-rule="evenodd"/>
 <path d="m330.052,89.45c-.938-1.548-1.656-3.204-2.449-5.4-.9-2.304-2.771-6.192-2.123-7.488 .646-1.368 1.043-1.368 6.191,0 5.111,1.404 18.035,5.796 24.588,8.316 6.48,2.376 11.305,4.716 14.328,6.192 2.951,1.368 3.023,1.26 3.275,2.592 .037,1.224-1.008,3.276-2.447,5.04-1.477,1.656-3.492,3.348-6.191,5.076-5.832-1.224-12.061-2.16-19.369-2.952-7.416-.828-19.008-1.332-23.939-1.944-4.932-.684-6.516-.72-5.148-2.196 1.331-1.692 5.758-3.924 13.284-7.236z" fill="#160379" fill-rule="evenodd"/>
 <path d="m368.464,98.378c-10.332-3.492-18.289-5.94-24.408-7.488-6.156-1.548-9.938-2.196-11.881-1.8-2.736-4.464-3.637-7.344-3.096-8.784 .539-1.584.684-1.476 6.66.18s23.291,7.74 29.16,10.08c5.652,2.196 4.752,2.664 5.363,3.924 .505,1.26.038,2.556-1.798,3.888z" fill="#3d258e" fill-rule="evenodd"/>
 <path d="m127.407,219.662c-5.508.036-10.477.252-15.301.648-4.824.36-9.72-.036-13.319,1.584-3.673,1.476-4.752,2.196-8.496,7.704-3.925,5.544-9.252,14.868-14.185,25.488-5.004,10.62-11.699,28.477-14.939,37.62-3.204,9-3.313,7.776-4.068,16.164-.828,8.244-2.34,24.444-.791,33.192 1.475,8.604 5.039,14.292 9.719,18.575 4.572,4.141 10.225,6.301 17.389,6.48-.359,8.892-.359,15.624 0,20.628 .216,4.824-.18,7.092 2.016,8.892 2.305,1.801 7.74,1.836 11.305,2.053 3.384.18 7.056.144 8.928-1.225 1.656-1.439 1.26-2.664 1.584-7.704 .324-5.147.468-12.779.432-23.04h99.108c.18,10.261.504,17.893.972,23.04 .396,5.04-.18,6.265 1.62,7.704 1.8,1.368 5.364,1.404 8.892,1.225 3.42-.217 9-.252 11.34-2.053 2.232-1.8 1.656-4.067 2.017-8.892 .288-5.004.288-11.736 0-20.628 7.128-.18 12.743-2.34 17.388-6.48 4.572-4.283 8.137-9.972 9.721-18.575 1.439-8.748-.072-24.948-.793-33.192-.828-8.388-.936-7.164-4.068-16.164-3.311-9.144-10.043-27-14.939-37.62-5.004-10.62-10.332-19.944-14.184-25.488-3.816-5.508-4.932-6.228-8.496-7.704-3.779-1.62-8.604-1.224-13.355-1.584-4.752-.396-9.756-.612-15.012-.648h-60.485z" fill="#160379" fill-rule="evenodd"/>
 <path d="m128.056,228.806c-4.824-.251-9-.071-12.961.396-3.996.468-7.632.576-10.512,2.412-2.916,1.691-4.284,3.42-6.876,8.1-2.808,4.681-6.696,13.681-9.288,19.8-2.628,5.904-5.436,12.133-6.084,16.2-.684,3.924-1.152,6.3 2.052,8.101 3.169,1.764 10.261,2.231 16.56,2.808 6.121.396 4.717.396 20.232.396 15.624.036 56.196.036 72,0 15.48,0 14.58,0 20.916-.396 6.264-.576 13.356-1.044 16.561-2.808 3.096-1.801 2.627-4.177 2.051-8.101-.755-4.067-3.527-10.296-6.083-16.2-2.7-6.119-6.588-15.119-9.288-19.8s-4.068-6.408-6.876-8.1c-3.06-1.836-6.624-1.944-10.548-2.412-3.996-.468-8.208-.647-12.924-.396h-58.932z" fill="#3d258e" fill-rule="evenodd"/>
 <path d="m85.719 307.21c10.493 0 19.009 8.516 19.009 19.008s-8.516 19.009-19.009 19.009-19.008-8.516-19.008-19.009 8.516-19.008 19.008-19.008" fill="#3d258e" fill-rule="evenodd"/>
 <path d="m229.36 307.21c10.492 0 19.008 8.516 19.008 19.008s-8.516 19.009-19.008 19.009-19.008-8.516-19.008-19.009 8.516-19.008 19.008-19.008" fill="#3d258e" fill-rule="evenodd"/>
 <path d="m157.52 309.3h-27c-5.637 0-10.205 3.07-10.205 6.858s4.568 6.857 10.205 6.857h54c5.637 0 10.207-3.07 10.207-6.857s-4.57-6.858-10.207-6.858h-27z" fill="#3d258e" fill-rule="evenodd"/>
 <path d="m157.52 327.88h-27c-5.637 0-10.205 3.079-10.205 6.876s4.568 6.876 10.205 6.876h54c5.637 0 10.207-3.078 10.207-6.876s-4.57-6.876-10.207-6.876h-27z" fill="#3d258e" fill-rule="evenodd"/>
 <path d="m114.28 40.334c35.114 0 63.613 28.515 63.613 63.648s-28.499 63.648-63.613 63.648-63.611-28.514-63.611-63.648 28.498-63.648 63.611-63.648" fill="#160379" fill-rule="evenodd"/>
 <path d="m114.4 53.27c27.463 0 49.752 22.289 49.752 49.752s-22.289 49.752-49.752 49.752-49.752-22.289-49.752-49.752 22.29-49.752 49.752-49.752" fill="#483093" fill-rule="evenodd"/>
 <path d="m89.679,78.938h29.916c6.516,0 11.412,1.548 14.652,4.644 3.275,3.132 4.896,7.596 4.896,13.248 0,5.94-1.801,10.548-5.293,13.86-3.6,3.348-8.964,4.968-16.271,4.968h-9.864v21.564h-18.036v-58.284zm18.036,24.912h4.5c3.384,0 5.94-.576 7.308-1.8 1.369-1.188 2.125-2.771 2.125-4.644s-.648-3.384-1.873-4.716c-1.224-1.224-3.492-1.836-6.947-1.836h-5.112c-.001,4.32-.001,8.64-.001,12.996z" fill="#160379" fill-rule="evenodd"/>
</svg>
